<mxfile host="app.diagrams.net" modified="2022-04-17T11:54:37.430Z" agent="5.0 (Macintosh; Intel Mac OS X 10_15_7) AppleWebKit/605.1.15 (KHTML, like Gecko) Version/15.4 Safari/605.1.15" etag="ECHcF_PV2AOKDUiU52Wp" version="17.4.5" type="github">
  <diagram id="WHU3kty_jmGUi2LCm642" name="Page-1">
    <mxGraphModel dx="1298" dy="840" grid="1" gridSize="10" guides="1" tooltips="1" connect="1" arrows="1" fold="1" page="1" pageScale="1" pageWidth="827" pageHeight="1169" math="0" shadow="0">
      <root>
        <mxCell id="0" />
        <mxCell id="1" parent="0" />
        <mxCell id="LTpJlwpwCN4NjjXD1NjD-1" value="&lt;span style=&quot;font-size: 16px ; color: rgb(77 , 77 , 77) ; font-family: , &amp;#34;sf ui text&amp;#34; , &amp;#34;arial&amp;#34; , &amp;#34;pingfang sc&amp;#34; , &amp;#34;hiragino sans gb&amp;#34; , &amp;#34;microsoft yahei&amp;#34; , &amp;#34;wenquanyi micro hei&amp;#34; , sans-serif , &amp;#34;simhei&amp;#34; , &amp;#34;simsun&amp;#34; ; background-color: rgb(255 , 255 , 255)&quot;&gt;HLS(m3u8)&lt;/span&gt;" style="rounded=0;whiteSpace=wrap;html=1;" vertex="1" parent="1">
          <mxGeometry x="50" y="260" width="120" height="60" as="geometry" />
        </mxCell>
        <mxCell id="LTpJlwpwCN4NjjXD1NjD-2" value="TS" style="rounded=0;whiteSpace=wrap;html=1;" vertex="1" parent="1">
          <mxGeometry x="230" y="200" width="120" height="60" as="geometry" />
        </mxCell>
        <mxCell id="LTpJlwpwCN4NjjXD1NjD-3" value="FMP4" style="rounded=0;whiteSpace=wrap;html=1;" vertex="1" parent="1">
          <mxGeometry x="230" y="300" width="120" height="60" as="geometry" />
        </mxCell>
      </root>
    </mxGraphModel>
  </diagram>
</mxfile>
